# xmcd CD database file
#
# Track frame offsets:
#	150
#	20664
#	34426
#	60050
#	80263
#	102690
#	121529
#	135078
#	152314
#	167585
#	180758
#	200856
#	223743
#
# Disc length: 3187 seconds
#
# Revision: 0
# Processed by: cddbd v1.5.2PL0 Copyright (c) Steve Scherf et al.
# Submitted via: CDex 1.51
#
DISCID=9c0c710d
DTITLE=Habano son - Yo soy asi
DYEAR=1900
DGENRE=Salsa
TTITLE0=01 - Santiaguera
TTITLE1=02 - Despacito
TTITLE2=03 - Golondrina
TTITLE3=04 - Comprador
TTITLE4=05 - Vuelvo a la vida
TTITLE5=06 - Ruñidera
TTITLE6=07 - Yo soy asi
TTITLE7=08 - Son de la loma
TTITLE8=09 - Chanchan
TTITLE9=10 - El Amor de Yaritza
TTITLE10=11 - Vacilon
TTITLE11=12 - Oye com va
TTITLE12=13 - Al compas de mi son
EXTD=
EXTT0=
EXTT1=
EXTT2=
EXTT3=
EXTT4=
EXTT5=
EXTT6=
EXTT7=
EXTT8=
EXTT9=
EXTT10=
EXTT11=
EXTT12=
PLAYORDER=
